<svg width="27" height="41" viewBox="0 0 27 41" fill="none" xmlns="http://www.w3.org/2000/svg">
<path d="M25.0862 0.5C24.2611 0.5 23.5742 7.31967 23.4128 16.3921C23.2436 8.06804 22.5619 1.84605 21.7444 1.84605C20.9193 1.84605 20.2324 8.21108 20.071 16.6757C19.9019 8.95945 19.2202 3.18955 18.4053 3.18955C17.5801 3.18955 16.8908 9.09993 16.7319 16.9592C16.5601 9.85086 15.8784 4.53561 15.0661 4.53561C14.2409 4.53561 13.5515 9.99135 13.3926 17.2427C13.2209 10.7397 12.5392 5.88166 11.7269 5.88166C10.9017 5.88166 10.2123 10.8828 10.0534 17.5287C9.8818 11.6337 9.2001 7.22772 8.3877 7.22772C7.56 7.22772 6.8706 11.7793 6.7143 17.8199C6.5425 12.5277 5.8609 8.57378 5.0485 8.57378C4.2208 8.57378 3.5314 12.6707 3.375 18.1085C3.2033 13.4216 2.5216 9.91982 1.7093 9.91982C0.766301 9.91982 0 14.6323 0 20.4481C0 26.2641 0.763701 30.9765 1.7093 30.9765C2.5216 30.9765 3.2007 27.4773 3.375 22.7878C3.5314 28.2257 4.2208 32.3226 5.0485 32.3226C5.8609 32.3226 6.5425 28.3687 6.7143 23.0764C6.8706 29.1196 7.5626 33.6686 8.3877 33.6686C9.2027 33.6686 9.8818 29.2652 10.0534 23.3676C10.2123 30.0136 10.9017 35.0146 11.7269 35.0146C12.5418 35.0146 13.2209 30.1566 13.3926 23.6537C13.5515 30.905 14.2409 36.3607 15.0661 36.3607C15.881 36.3607 16.5627 31.048 16.7319 23.9372C16.8908 31.7964 17.5801 37.7067 18.4053 37.7067C19.2202 37.7067 19.9019 31.9394 20.071 24.2207C20.2299 32.6852 20.9193 39.0502 21.7444 39.0502C22.5594 39.0502 23.241 32.8257 23.4128 24.5042C23.5742 33.5766 24.2611 40.3964 25.0862 40.3964C26.0293 40.3964 26.7955 31.4644 26.7955 20.4456C26.7955 9.42687 26.0293 0.5 25.0862 0.5Z" fill="#FF8C42"/>
</svg>
